# xmcd CD database file
#
# Track frame offsets:
#	150
#	22066
#	44180
#	61768
#
# Disc length: 925 seconds
#
# Revision: 0
# Processed by: cddbd v1.5PL3 Copyright (c) Steve Scherf et al.
# Submitted via: CDex 1.51
#
DISCID=34039b04
DTITLE=玉置成実 - Realize Reproduction -Gundam Seed Edition-
DYEAR=2003
DGENRE=JPop
TTITLE0=Realize -KZ Strictly Uptempo Mix-
TTITLE1=Realize -Fly In To The Universe Mix-
TTITLE2=Long Way Behind
TTITLE3=Realize -Gundam Seed Opening Ver.-
EXTD=YEAR: 2003
EXTT0=
EXTT1=
EXTT2=
EXTT3=
PLAYORDER=
